<?xml version="1.0" standalone="no"?>
<!DOCTYPE svg PUBLIC "-//W3C//DTD SVG 20010904//EN"
 "http://www.w3.org/TR/2001/REC-SVG-20010904/DTD/svg10.dtd">
<svg version="1.0" xmlns="http://www.w3.org/2000/svg"
 width="512.000000pt" height="512.000000pt" viewBox="0 0 512.000000 512.000000"
 preserveAspectRatio="xMidYMid meet">
<metadata>
Created by potrace 1.11, written by Peter Selinger 2001-2013
</metadata>
<g transform="translate(0.000000,512.000000) scale(0.100000,-0.100000)"
fill="#000000" stroke="none">
<path d="M381 5104 c-132 -35 -256 -133 -318 -250 -68 -127 -63 41 -63 -2300
0 -2081 0 -2123 20 -2185 23 -75 77 -169 126 -219 46 -48 133 -100 213 -127
l66 -22 2133 -1 2133 0 76 25 c166 56 272 162 328 329 l25 75 0 2128 c0 1930
-2 2134 -16 2184 -55 186 -189 317 -371 364 -85 22 -4269 21 -4352 -1z m3449
-696 c219 -67 537 -315 722 -562 115 -154 247 -442 216 -472 -23 -21 -548
-384 -556 -384 -5 0 -16 26 -26 58 -29 94 -141 310 -213 411 -86 120 -228 268
-266 277 -72 17 -169 -47 -265 -176 -109 -144 -113 -176 -119 -913 -5 -598 3
-815 31 -898 35 -102 171 -266 257 -309 89 -46 178 -10 313 126 121 120 146
174 162 352 l7 72 -182 0 -181 0 0 285 0 285 515 0 515 0 0 -910 0 -910 -249
0 -250 0 -10 53 c-6 28 -20 106 -32 172 -11 66 -22 121 -23 122 -1 1 -50 -49
-109 -111 -181 -194 -328 -296 -424 -296 -133 0 -369 164 -668 464 -159 159
-256 280 -306 377 -72 143 -82 293 -76 1094 4 615 8 677 43 855 32 162 125
292 395 555 234 228 395 349 526 395 68 24 147 20 253 -12z m-1420 -343 l0
-305 -337 -2 -338 -3 -3 -1508 -2 -1507 -355 0 -355 0 0 1510 0 1510 -340 0
-340 0 0 305 0 305 1035 0 1035 0 0 -305z"/>
</g>
</svg>
