<?xml version="1.0" standalone="no"?>
<!DOCTYPE svg PUBLIC "-//W3C//DTD SVG 20010904//EN"
 "http://www.w3.org/TR/2001/REC-SVG-20010904/DTD/svg10.dtd">
<svg version="1.0" xmlns="http://www.w3.org/2000/svg"
 width="512.000000pt" height="512.000000pt" viewBox="0 0 512.000000 512.000000"
 preserveAspectRatio="xMidYMid meet">
<metadata>
Created by potrace 1.11, written by Peter Selinger 2001-2013
</metadata>
<g transform="translate(0.000000,512.000000) scale(0.100000,-0.100000)"
fill="#000000" stroke="none">
<path d="M405 5108 c-160 -30 -314 -166 -377 -334 l-23 -59 0 -2155 0 -2155
23 -59 c64 -169 213 -300 380 -335 75 -16 4229 -16 4304 0 189 39 358 208 397
397 16 75 16 4229 0 4304 -35 167 -166 316 -335 380 l-59 23 -2130 1 c-1323 1
-2149 -2 -2180 -8z m1878 -640 c3 -13 24 -133 47 -268 23 -135 43 -254 46
-265 5 -20 -2 -21 -258 -39 -145 -10 -290 -21 -323 -24 l-60 -7 -6 -130 c-24
-496 -31 -1254 -19 -2118 6 -494 9 -901 6 -905 -5 -5 -363 22 -588 45 l-57 6
-5 51 c-4 28 -14 213 -24 411 -14 288 -17 537 -16 1250 0 490 5 985 11 1100 6
116 9 212 7 214 -2 2 -143 -16 -313 -40 -171 -24 -313 -41 -316 -38 -6 7 -117
590 -113 594 10 10 380 66 623 94 262 30 397 41 840 66 548 30 512 30 518 3z
m1657 -68 c157 -38 335 -137 463 -259 142 -135 250 -367 293 -631 13 -74 15
-141 11 -300 -5 -176 -28 -405 -43 -419 -5 -6 -560 38 -587 46 -15 4 -18 11
-13 31 13 64 18 361 7 452 -30 246 -116 434 -218 477 -56 23 -124 17 -174 -17
-92 -60 -190 -233 -274 -480 -80 -236 -122 -435 -145 -688 -16 -176 -8 -604
15 -772 48 -352 147 -570 288 -630 43 -19 63 -22 125 -17 171 13 270 117 352
368 29 89 86 356 77 365 -6 6 -279 -15 -340 -27 -28 -5 -52 -7 -55 -5 -3 3
-110 493 -112 512 0 1 49 4 110 8 157 9 503 42 809 76 146 16 266 28 267 27 9
-9 27 -304 27 -442 1 -195 -9 -253 -79 -465 -46 -139 -121 -307 -177 -395
-115 -184 -312 -393 -443 -471 -157 -93 -269 -120 -468 -111 -282 12 -494 104
-692 301 -318 317 -453 794 -423 1492 26 609 177 1152 421 1514 195 288 390
433 646 480 70 13 236 3 332 -20z"/>
</g>
</svg>
